HIERARCHY
ROOT root
{
	OFFSET 0.000000 0.000000 0.000000
	CHANNELS 6 Xposition Yposition Zposition Zrotation Yrotation Xrotation
	JOINT lhip
	{
		OFFSET 0.058581 -0.082280 -0.017664
		CHANNELS 3 Zrotation Yrotation Xrotation
		JOINT lknee
		{
			OFFSET 0.043451 -0.386469 0.008037
			CHANNELS 3 Zrotation Yrotation Xrotation
			JOINT lankle
			{
				OFFSET -0.014790 -0.426874 -0.037428
				CHANNELS 3 Zrotation Yrotation Xrotation
				JOINT ltoe
				{
					OFFSET 0.041054 -0.060286 0.122042
					CHANNELS 3 Zrotation Yrotation Xrotation
					End Site
					{
						OFFSET 0.000000 0.000000 0.000000
					}
				}
			}
		}
	}
	JOINT rhip
	{
		OFFSET -0.060310 -0.090513 -0.013543
		CHANNELS 3 Zrotation Yrotation Xrotation
		JOINT rknee
		{
			OFFSET -0.043257 -0.383688 -0.004843
			CHANNELS 3 Zrotation Yrotation Xrotation
			JOINT rankle
			{
				OFFSET 0.019056 -0.420046 -0.034562
				CHANNELS 3 Zrotation Yrotation Xrotation
				JOINT rtoe
				{
					OFFSET -0.034840 -0.062106 0.130323
					CHANNELS 3 Zrotation Yrotation Xrotation
					End Site
					{
						OFFSET 0.000000 0.000000 0.000000
					}
				}
			}
		}
	}
	JOINT lowerback
	{
		OFFSET 0.004439 0.124404 -0.038385
		CHANNELS 3 Zrotation Yrotation Xrotation
		JOINT upperback
		{
			OFFSET 0.004488 0.137956 0.026820
			CHANNELS 3 Zrotation Yrotation Xrotation
			JOINT chest
			{
				OFFSET -0.002265 0.056032 0.002855
				CHANNELS 3 Zrotation Yrotation Xrotation
				JOINT lowerneck
				{
					OFFSET -0.013390 0.211636 -0.033468
					CHANNELS 3 Zrotation Yrotation Xrotation
					JOINT upperneck
					{
						OFFSET 0.010113 0.088937 0.050410
						CHANNELS 3 Zrotation Yrotation Xrotation
						End Site
						{
							OFFSET 0.000000 0.000000 0.000000
						}
					}
				}
				JOINT lclavicle
				{
					OFFSET 0.071702 0.114000 -0.018898
					CHANNELS 3 Zrotation Yrotation Xrotation
					JOINT lshoulder
					{
						OFFSET 0.122921 0.045205 -0.019046
						CHANNELS 3 Zrotation Yrotation Xrotation
						JOINT lelbow
						{
							OFFSET 0.255332 -0.015649 -0.022946
							CHANNELS 3 Zrotation Yrotation Xrotation
							JOINT lwrist
							{
								OFFSET 0.265709 0.012698 -0.007375
								CHANNELS 3 Zrotation Yrotation Xrotation
								End Site
								{
									OFFSET 0.000000 0.000000 0.000000
								}
							}
						}
					}
				}
				JOINT rclavicle
				{
					OFFSET -0.082954 0.112472 -0.023707
					CHANNELS 3 Zrotation Yrotation Xrotation
					JOINT rshoulder
					{
						OFFSET -0.113228 0.046853 -0.008472
						CHANNELS 3 Zrotation Yrotation Xrotation
						JOINT relbow
						{
							OFFSET -0.260127 -0.014369 -0.031269
							CHANNELS 3 Zrotation Yrotation Xrotation
							JOINT rwrist
							{
								OFFSET -0.269108 0.006794 -0.006027
								CHANNELS 3 Zrotation Yrotation Xrotation
								End Site
								{
									OFFSET 0.000000 0.000000 0.000000
								}
							}
						}
					}
				}
			}
		}
	}
}
MOTION
Frames: 5
Frame Time: 0.033333
0.264656 1.376541 0.211017 176.891501 2.433624 40.546933 18.241316 19.201333 -67.892350 3.169075 25.493272 70.813507 -20.599004 1.565802 34.143318 0.000000 -0.000000 0.000000 -8.284842 -12.623919 -75.220683 -9.190841 -28.189394 88.466141 10.175009 3.129530 22.396393 0.000000 -0.000000 0.000000 -0.197620 1.052041 74.511895 1.271805 -4.961149 -2.090493 3.418369 -1.841744 -1.203299 0.436143 28.080274 9.328827 -0.205329 24.234223 -10.599622 -2.462922 -31.722304 -6.227605 -7.973288 -15.044542 -2.865636 -22.973705 -56.598476 19.037540 -1.664198 -28.370384 -19.615056 -3.313512 29.698782 -7.480223 -4.218848 45.332207 -23.890575 -141.237887 45.422181 -135.204607 -40.622232 19.010017 -38.053958 
0.264704 1.376814 0.211005 176.893385 2.435200 40.565742 18.237194 19.392975 -67.920713 3.121019 25.608289 70.877879 -20.695497 1.638655 34.167665 0.000000 -0.000000 0.000000 -8.308182 -12.587924 -75.233887 -9.124121 -28.092541 88.448665 10.390802 3.683141 22.241829 0.000000 -0.000000 0.000000 -0.198636 1.025709 74.536964 1.189931 -4.958986 -2.196776 3.415789 -1.883356 -1.349002 0.152208 28.070326 9.121502 -0.117652 23.947108 -10.624307 -2.481400 -31.712968 -6.115191 -8.156844 -14.969992 -2.869488 -23.029937 -56.610958 19.218566 -1.542247 -28.341798 -19.594279 -3.185190 29.563652 -7.392675 -2.868102 45.499342 -23.155291 -140.646251 46.486786 -135.432177 -41.499119 17.815898 -38.918219 
0.264693 1.376867 0.211084 176.834308 2.442792 40.588112 18.259097 19.560046 -67.902799 3.131866 25.674129 70.888506 -20.686978 1.639671 34.257183 0.000000 -0.000000 0.000000 -8.176885 -12.470485 -75.309894 -9.119747 -28.012013 88.367036 10.195426 3.355513 22.437879 0.000000 -0.000000 0.000000 -0.235123 1.038766 74.730413 1.081216 -4.821329 -2.372012 3.483924 -1.861955 -1.491456 -0.211126 27.777897 8.936581 -0.124003 24.100467 -11.011850 -2.541078 -31.759410 -5.968309 -8.049864 -14.963412 -2.835859 -23.210166 -56.650801 19.405899 -1.426806 -28.317615 -19.528255 -3.026985 29.786881 -7.082627 -2.007929 45.052178 -22.387936 -139.662785 47.352531 -135.264237 -41.642947 16.943639 -39.458316 
0.264740 1.377130 0.211179 176.788593 2.458039 40.558267 18.272807 19.648071 -67.845183 3.118833 25.653339 70.877776 -20.774842 1.651663 34.232784 0.000000 -0.000000 0.000000 -8.182352 -12.377440 -75.301925 -9.330166 -27.967554 88.325227 10.489369 3.417935 22.896841 0.000000 -0.000000 0.000000 -0.301432 1.016019 74.989838 0.937233 -4.651476 -2.601765 3.491916 -1.706910 -1.350758 -0.520100 28.037173 8.545860 -0.164498 24.043451 -11.621187 -2.496581 -31.669744 -6.129140 -7.850090 -15.379617 -2.685753 -23.303184 -56.528084 19.409420 -1.522066 -28.342317 -19.476715 -2.607641 29.786787 -6.690507 -2.016673 44.653963 -22.169354 -137.912109 48.971448 -134.482886 -42.068458 16.481568 -40.327647 
0.264649 1.377474 0.211094 176.794168 2.519672 40.527033 18.314133 19.619902 -67.837116 2.997937 25.646764 70.843222 -20.732033 1.764619 34.150910 0.000000 -0.000000 0.000000 -8.136904 -12.303312 -75.350352 -9.191775 -27.931916 88.293255 10.141482 2.837634 22.752435 0.000000 -0.000000 0.000000 -0.320763 0.966432 75.069635 0.901672 -4.480451 -2.669356 3.545494 -1.629903 -1.348608 -0.989472 27.520704 7.684947 0.061404 23.567993 -11.334458 -2.823321 -31.655012 -6.014760 -7.409234 -15.729897 -2.584094 -23.598498 -56.338794 19.584116 -1.395944 -28.466806 -19.430460 -2.110020 29.928410 -5.978022 -2.460859 44.233907 -22.123732 -135.685669 51.060575 -133.523612 -42.609183 15.843620 -40.583313 
